<svg version="1.1" id="Layer_1" xmlns="http://www.w3.org/2000/svg" xmlns:xlink="http://www.w3.org/1999/xlink" x="0px" y="0px" viewBox="-817.2 411.8 984 144.3" style="enable-background:new -817.2 411.8 984 144.3;" xml:space="preserve">
 <style type="text/css">
  .st0{filter:url(#Adobe_OpacityMaskFilter);}
	.st1{fill:#FFFFFF;}
	.st2{mask:url(#b);fill:#1D1D1B;}
	.st3{fill:#E63934;}
	.st4{filter:url(#Adobe_OpacityMaskFilter_1_);}
	.st5{mask:url(#d);fill:#00466E;}
 </style>
 <g>
  <g transform="translate(74.962 6.852)">
   <defs>
    <filter id="Adobe_OpacityMaskFilter" filterUnits="userSpaceOnUse" x="-544.2" y="436.2" width="635.9" height="81.9">
     <feColorMatrix type="matrix" values="1 0 0 0 0  0 1 0 0 0  0 0 1 0 0  0 0 0 1 0">
     </feColorMatrix>
    </filter>
   </defs>
   <mask maskUnits="userSpaceOnUse" x="-544.2" y="436.2" width="635.9" height="81.9" id="b">
    <g class="st0">
     <path id="a" class="st1" d="M91.8,518v-81.9h-635.9V518L91.8,518L91.8,518z">
     </path>
    </g>
   </mask>
   <path class="st2" d="M91.8,497.2c-11.2,16-30.1,20.9-48,20.9c-30.6,0-56-15.9-56-40.6c0-23.7,25.3-40.5,56.9-40.5
			c14.6,0,28.8,2.7,39.9,12.6l0.9,0.8c0.5,0.4,1,1,1.5,1.5c0.7,0.7,1.2,1.2,1.2,1.2c-1.3,1.4-2.6,2.2-3.8,2.5
			c-1.3,0.4-2.6,0.3-3.6,0c-2.1-0.7-3.5-2.2-3.5-2.2c-7.8-7.5-17.4-10.2-28.1-10.2c-22.7,0-37.3,12.9-37.3,34.8
			c0,19.3,11.4,30.6,30.6,32.5c1.8,0.3,3.8,0.5,6,0.5c3.4,0,6.7-0.4,9.9-1.1c4.3-0.8,8.4-2.2,12.2-4.3c5.6-2.9,10.5-6.7,13.8-11.3
			L91.8,497.2L91.8,497.2z M-488.2,518c-30.6,0-56-15.9-56-40.6c0-23.7,25.3-40.5,56.9-40.5c14.6,0,28.8,2.7,39.9,12.6l0.9,0.8
			c0.5,0.4,1,1,1.5,1.5c0.6,0.7,1.2,1.2,1.2,1.2c-1.3,1.4-2.6,2.2-3.8,2.5c-1.3,0.4-2.6,0.3-3.6,0c-1.3-0.4-2.6-1.2-3.5-2.2
			c-7.8-7.5-17.4-10.2-28.1-10.2c-22.7,0-37.3,12.9-37.3,34.8c0,19.3,11.4,30.6,30.6,32.5c1.8,0.3,3.8,0.5,6,0.5
			c3.3,0,6.7-0.4,10-1.1c4.3-0.8,8.4-2.2,12.2-4.3c5.7-2.9,10.5-6.7,13.8-11.3l7.3,3C-451.4,513.2-470.3,518-488.2,518z
			 M-243.4,461.5c0,12.8-12.7,23.7-30.6,23.7h-25.9v-3.4c0-1.9,1.6-3.5,3.5-3.5h11.8c10.2,0,18.6-7.5,18.6-16.6
			c0-9.1-8.4-16.6-18.6-16.6h-18.6v71.5h-22.4v-78.4h51.7C-256.1,438.3-243.4,448.7-243.4,461.5L-243.4,461.5z M-92.8,438.3l68.1,0
			v6.9h-45.6v26.3h42.6v6.8h-42.6v31.6h45.6v6.9h-68.1C-92.8,516.7-92.8,438.3-92.8,438.3z M-363,516.7l-14.6-24.5h-30.3l3-5.3
			c0.6-0.9,1.7-1.5,2.8-1.5l20.3,0l-12.9-21.7l-31.3,53.1h-11.5l48.2-80.5l50.2,80.5H-363L-363,516.7z M-116.9,438.3l9.5,0v6.8
			h-30.1v71.5h-22.3v-71.5l-30.2,0l0-6.9L-116.9,438.3L-116.9,438.3z M-227.1,516.5h22.6v-78.3h-22.6V516.5L-227.1,516.5z">
   </path>
  </g>
  <path class="st3" d="M-617,411.8h-99.9v41.9c0,15,12.2,27.1,27.2,27.1h52.2c18.7,0,34,15.3,34,34v39.6c36.2-6,64-35.5,64-70.8
		C-539.5,444.1-574.4,411.8-617,411.8">
  </path>
  <g transform="translate(0 .54)">
   <defs>
    <filter id="Adobe_OpacityMaskFilter_1_" filterUnits="userSpaceOnUse" x="-817.2" y="411.9" width="186.1" height="143.6">
     <feColorMatrix type="matrix" values="1 0 0 0 0  0 1 0 0 0  0 0 1 0 0  0 0 0 1 0">
     </feColorMatrix>
    </filter>
   </defs>
   <mask maskUnits="userSpaceOnUse" x="-817.2" y="411.9" width="186.1" height="143.6" id="d">
    <g class="st4">
     <path id="c" class="st1" d="M-817.2,411.9v143.6h186V411.9H-817.2z">
     </path>
    </g>
   </mask>
   <path class="st5" d="M-658.4,486.1h-52.1c-18.7,0-34-15.1-34-33.8v-40.4c-40.4,2.3-72.8,33.7-72.8,71.7
			c0,39.5,34.9,71.9,77.5,71.9h108.5v-42.2C-631.2,498.4-643.4,486.1-658.4,486.1">
   </path>
  </g>
 </g>
</svg>